<svg xmlns="http://www.w3.org/2000/svg" fill-rule="evenodd" stroke-linejoin="round" stroke-miterlimit="2" clip-rule="evenodd" viewBox="0 0 24 24">
  <g fill-rule="nonzero">
    <path fill="#95bf46" d="M19.271 5.283a.213.213 0 00-.192-.178c-.08-.007-1.771-.132-1.771-.132l-1.303-1.295c-.129-.129-.381-.09-.479-.061l-.657.203c-.392-1.129-1.085-2.166-2.303-2.166l-.102.003C12.117 1.199 11.688 1 11.318 1 8.48 1 7.125 4.547 6.7 6.349l-1.986.616c-.616.193-.635.213-.716.793-.061.439-1.671 12.891-1.671 12.891L14.874 23l6.799-1.471S19.286 5.394 19.271 5.283zm-5.095-1.248l-1.062.328.001-.229c0-.701-.098-1.266-.254-1.714.628.079 1.046.793 1.315 1.615zm-2.093-1.476c.174.437.287 1.065.287 1.911v.123l-2.193.679c.422-1.629 1.214-2.416 1.906-2.713zm-.843-.798c.122 0 .245.042.363.123-.909.428-1.884 1.505-2.295 3.657l-1.733.537c.482-1.641 1.627-4.317 3.664-4.317h.001z"/>
    <path fill="#5e8e3e" d="M19.079 5.105c-.08-.007-1.771-.132-1.771-.132l-1.303-1.295a.316.316 0 00-.181-.083L14.875 23l6.798-1.471S19.286 5.394 19.271 5.283a.213.213 0 00-.192-.178"/>
    <path fill="#fff" d="M12.566 8.861l-.838 2.494s-.734-.392-1.635-.392c-1.319 0-1.386.828-1.386 1.037 0 1.139 2.969 1.575 2.969 4.243 0 2.099-1.331 3.45-3.126 3.45-2.154 0-3.255-1.34-3.255-1.34l.576-1.906s1.133.972 2.088.972c.624 0 .878-.491.878-.85 0-1.486-2.435-1.552-2.435-3.993 0-2.055 1.474-4.043 4.451-4.043 1.147 0 1.713.328 1.713.328"/>
  </g>
</svg>